# xmcd
#
# Track frame offsets: 
#        150
#        14985
#        31465
#        42585
#        60850
#        74717
#        85845
#        97430
#        113065
#        126887
#        139130
#        149450
#        168555
#        179860
#
# Disc length: 2634 seconds
#
# Revision: 3
# Processed by: cddbd v1.5.2PL0 Copyright (c) Steve Scherf et al.
# Submitted via: ExactAudioCopyFreeDBPlugin 1.0
#
DISCID=e10a480e
DTITLE=Various Artist - Doo Wop Christmas
DYEAR=1997
DGENRE=Holiday
TTITLE0=The Jaguars - Happy Holiday
TTITLE1=Johnny Staton and The Feathers - More Than Enough for Me
TTITLE2=Jimmy Beasley - Christmas is Here Again
TTITLE3=The Five Boroughs - Like a Kid at Christmas
TTITLE4=The Five Boroughs - Only at Christmas
TTITLE5=The Castelles - At Christmas Time (ft George Grant)
TTITLE6=Johnny Staton and The Feathers - Ride on Santa
TTITLE7=The Storytellers - Christmas Time is Coming
TTITLE8=Rudy West and The Five Keys - I Want You for Christmas
TTITLE9=Sonny Knight - Please Come Home for Christmas
TTITLE10=The Jaguars - Merry Chrismas Darling
TTITLE11=Vicky and Al - White Christmas
TTITLE12=Margo Sylvia and The Tune Weavers - Merry Merry Christmas Bab
TTITLE12=y
TTITLE13=Margo Sylvia and The Tune Weavers - What Are You Doing New Ye
TTITLE13=ars Eve?
EXTD=
EXTT0=
EXTT1=
EXTT2=
EXTT3=
EXTT4=
EXTT5=
EXTT6=
EXTT7=
EXTT8=
EXTT9=
EXTT10=
EXTT11=
EXTT12=
EXTT13=
PLAYORDER=
